<svg width="1313" height="544" viewBox="0 0 1313 544" fill="none" xmlns="http://www.w3.org/2000/svg">
<g filter="url(#filter0_di_7304_4945)">
<rect x="438.504" y="80.5" width="447" height="383.2" rx="24" fill="black" fill-opacity="0.01" shape-rendering="crispEdges"/>
<rect x="438.504" y="80.5" width="447" height="383.2" rx="24" fill="url(#paint0_radial_7304_4945)" fill-opacity="0.31" shape-rendering="crispEdges"/>
<rect x="437.504" y="79.5" width="449" height="385.2" rx="25" stroke="url(#paint1_linear_7304_4945)" stroke-opacity="0.4" stroke-width="2" shape-rendering="crispEdges"/>
<g clip-path="url(#clip0_7304_4945)">
<mask id="mask0_7304_4945" style="mask-type:luminance" maskUnits="userSpaceOnUse" x="558" y="113" width="208" height="33">
<path d="M765.504 113.398H558.504V145.798H765.504V113.398Z" fill="white"/>
</mask>
<g mask="url(#mask0_7304_4945)">
<path d="M595.322 126.968C595.355 129.99 594.723 132.877 593.48 135.636C591.705 139.564 587.451 142.776 583.567 139.357C580.398 136.57 579.811 130.913 575.064 130.085C568.783 129.324 568.632 136.604 564.529 137.426C559.956 138.355 558.439 130.667 558.506 127.175C558.573 123.683 559.502 118.775 563.477 118.775C568.05 118.775 568.358 125.697 574.163 125.323C579.911 124.931 580.012 117.729 583.768 114.646C587.009 111.982 590.821 113.935 592.73 117.141C594.499 120.107 595.277 123.588 595.316 126.968H595.322Z" fill="#7FCFBC"/>
<path d="M612.567 138.714V115.346H614.784V125.452H628.453V115.346H630.637V138.714H628.453V127.332H614.784V138.714H612.567Z" fill="#0E0E1A"/>
<path d="M636.421 145.799L639.444 138.278L632.895 122.565H635.178L639.477 133.208C639.724 133.857 640.071 134.719 640.519 135.794C640.586 135.637 640.653 135.463 640.72 135.273C640.787 135.083 640.854 134.909 640.922 134.753C641.056 134.462 641.173 134.188 641.274 133.93C641.375 133.673 641.47 133.421 641.56 133.175L645.59 122.565H647.773L638.604 145.799H636.421Z" fill="#0E0E1A"/>
<path d="M649.994 145.798V122.564H652.077V125.518C652.614 124.511 653.392 123.689 654.411 123.051C655.429 122.413 656.566 122.094 657.82 122.094C659.32 122.094 660.624 122.457 661.732 123.185C662.841 123.912 663.692 124.92 664.285 126.207C664.878 127.494 665.175 128.954 665.175 130.588C665.175 132.222 664.867 133.722 664.251 135.02C663.636 136.318 662.768 137.337 661.648 138.076C660.529 138.814 659.253 139.184 657.82 139.184C656.611 139.184 655.497 138.893 654.478 138.311C653.459 137.729 652.659 136.878 652.077 135.759V145.798H649.994ZM657.517 137.505C658.615 137.505 659.583 137.214 660.423 136.632C661.262 136.05 661.906 135.238 662.354 134.198C662.802 133.157 663.025 131.954 663.025 130.588C663.025 129.223 662.796 128.093 662.337 127.063C661.878 126.033 661.234 125.233 660.406 124.662C659.577 124.091 658.615 123.806 657.517 123.806C656.42 123.806 655.485 124.086 654.646 124.645C653.806 125.205 653.151 126 652.681 127.029C652.211 128.059 651.976 129.245 651.976 130.588C651.976 131.931 652.211 133.157 652.681 134.198C653.151 135.238 653.801 136.05 654.629 136.632C655.458 137.214 656.42 137.505 657.517 137.505Z" fill="#0E0E1A"/>
<path d="M675.118 139.184C673.595 139.184 672.257 138.848 671.104 138.176C669.951 137.505 669.055 136.52 668.417 135.222C667.779 133.923 667.46 132.368 667.46 130.555C667.46 128.943 667.79 127.494 668.451 126.207C669.111 124.92 670.013 123.912 671.154 123.185C672.296 122.457 673.573 122.094 674.983 122.094C676.506 122.094 677.804 122.441 678.879 123.135C679.954 123.828 680.771 124.808 681.331 126.072C681.891 127.337 682.171 128.809 682.171 130.488V130.924H669.542C669.542 132.312 669.777 133.498 670.248 134.483C670.718 135.468 671.378 136.218 672.229 136.733C673.08 137.247 674.054 137.505 675.151 137.505C676.45 137.505 677.53 137.197 678.392 136.581C679.254 135.966 679.786 135.043 679.988 133.811H682.07C681.913 134.841 681.549 135.759 680.978 136.565C680.407 137.37 679.624 138.008 678.627 138.478C677.631 138.949 676.461 139.184 675.118 139.184ZM679.954 129.346C679.932 127.667 679.484 126.324 678.61 125.317C677.737 124.31 676.528 123.806 674.983 123.806C673.438 123.806 672.246 124.327 671.272 125.367C670.298 126.408 669.744 127.734 669.61 129.346H679.954Z" fill="#0E0E1A"/>
<path d="M685.39 138.714V122.564H687.472V125.787C687.92 124.713 688.619 123.828 689.571 123.135C690.523 122.441 691.637 122.094 692.913 122.094C693.226 122.094 693.529 122.116 693.82 122.161V124.175C693.439 124.131 693.103 124.108 692.812 124.108C691.737 124.108 690.797 124.349 689.991 124.83C689.185 125.311 688.563 126 688.127 126.895C687.69 127.79 687.472 128.831 687.472 130.017V138.714H685.39Z" fill="#0E0E1A"/>
<path d="M698.992 138.266L698.897 138.719H692.309L692.404 138.266C694.223 138.07 694.968 137.55 695.259 136.19L698.959 118.759C699.351 116.974 698.796 116.683 696.916 117.069L697.011 116.616L701.035 115.25H701.489L697.039 136.184C696.748 137.55 697.235 138.065 698.987 138.261L698.992 138.266Z" fill="#0E0E1A"/>
<path d="M706.41 138.266L706.315 138.72H699.727L699.822 138.266C701.641 138.07 702.386 137.55 702.677 136.19L704.916 125.575C705.307 123.756 704.787 123.499 702.872 123.885L702.968 123.432L706.992 122.066H707.446L704.457 136.185C704.166 137.55 704.652 138.065 706.405 138.261L706.41 138.266ZM707.513 116.196C708.392 116.196 708.974 116.879 708.879 117.752C708.75 118.63 707.972 119.28 707.127 119.28C706.22 119.28 705.599 118.63 705.733 117.752C705.828 116.873 706.612 116.196 707.519 116.196H707.513Z" fill="#0E0E1A"/>
<path d="M717.759 143.398L719.567 135.048C718.431 137.516 716.063 139.201 713.561 139.201C709.536 139.201 707.65 135.401 708.853 129.721C709.698 125.597 713.398 122.061 717.781 122.061C719.797 122.061 721.448 122.967 722.131 124.299L723.659 122.061H724.112L719.545 143.386C719.22 144.847 720.39 145.138 721.56 145.334L721.465 145.787H713.902L713.997 145.334C716.175 145.138 717.44 144.847 717.765 143.386L717.759 143.398ZM714.635 138.003C716.712 138.003 718.789 136.218 719.763 134.075L721.129 127.679C721.487 125.373 720.384 122.973 717.233 122.973C714.081 122.973 711.618 125.698 710.807 129.688C709.765 134.59 711.227 137.998 714.635 137.998V138.003Z" fill="#0E0E1A"/>
<path d="M746.637 138.266L746.541 138.72H739.953L740.049 138.266C741.867 138.07 742.612 137.55 742.903 136.19L745.141 125.575C745.533 123.756 745.013 123.499 743.098 123.885L743.193 123.432L747.218 122.066H747.672L744.682 136.185C744.392 137.55 744.878 138.065 746.631 138.261L746.637 138.266ZM747.738 116.196C748.618 116.196 749.2 116.879 749.104 117.752C748.977 118.63 748.197 119.28 747.353 119.28C746.446 119.28 745.825 118.63 745.958 117.752C746.053 116.873 746.838 116.196 747.745 116.196H747.738Z" fill="#0E0E1A"/>
<path d="M737.279 136.15L738.774 129.021L740.245 122.071H739.793L735.767 123.436L735.672 123.889C737.553 123.498 738.107 123.761 737.715 125.579L735.801 134.633C733.691 136.615 732.196 137.784 730.377 137.784C728.138 137.784 726.968 136.256 727.522 133.632L729.991 122.076H729.537L725.479 123.442L725.384 123.895C727.298 123.503 727.819 123.766 727.461 125.585L725.709 133.895C725.026 136.978 726.587 139.216 729.476 139.216C731.39 139.216 733.075 138.148 735.667 135.367L735.544 135.954V135.982H735.538L734.956 138.735H739.138L739.233 138.243C737.48 138.047 736.993 137.527 737.284 136.167L737.279 136.15Z" fill="#0E0E1A"/>
<path d="M764.192 121.462L765.5 115.25H765.049L761.024 116.616L760.928 117.069C762.809 116.677 763.362 116.974 762.971 118.759L761.836 124.047C761.117 122.844 759.562 122.066 757.742 122.066C753.327 122.066 749.66 125.569 748.719 130.018C747.583 135.407 749.435 139.201 753.494 139.201C756.025 139.201 758.432 137.483 759.533 135.015L759.244 136.431L758.756 138.714L762.937 138.68L763.033 138.227C761.281 138.031 760.793 137.511 761.085 136.151L764.186 121.462H764.192ZM759.724 134.041C758.75 136.218 756.673 138.003 754.564 138.003C751.154 138.003 749.693 134.595 750.667 129.984C751.574 125.698 754.171 122.973 757.195 122.973C760.419 122.973 761.494 125.53 761.067 127.858L760.918 128.563L759.73 134.041H759.724Z" fill="#0E0E1A"/>
</g>
</g>
<rect x="559.004" y="181.2" width="206" height="54" rx="7.5" fill="url(#paint2_linear_7304_4945)"/>
<rect x="559.004" y="181.2" width="206" height="54" rx="7.5" stroke="url(#paint3_linear_7304_4945)"/>
<rect x="559.004" y="181.2" width="206" height="54" rx="7.5" stroke="url(#paint4_linear_7304_4945)"/>
<path d="M611.235 215.7V201.155H613.43V207.476H620.681V201.155H622.883V215.7H620.681V209.358H613.43V215.7H611.235ZM627.651 219.791C627.334 219.791 627.045 219.765 626.784 219.713C626.524 219.666 626.33 219.614 626.202 219.557L626.713 217.817C627.102 217.921 627.447 217.966 627.75 217.952C628.053 217.937 628.321 217.824 628.553 217.611C628.789 217.398 628.998 217.05 629.178 216.567L629.441 215.842L625.449 204.791H627.722L630.485 213.257H630.598L633.361 204.791H635.641L631.145 217.156C630.937 217.724 630.672 218.205 630.35 218.598C630.028 218.996 629.644 219.294 629.199 219.493C628.754 219.692 628.238 219.791 627.651 219.791ZM638.037 219.791V204.791H640.11V206.56H640.288C640.411 206.332 640.589 206.07 640.821 205.771C641.053 205.473 641.375 205.213 641.787 204.99C642.198 204.763 642.743 204.649 643.42 204.649C644.301 204.649 645.087 204.872 645.778 205.317C646.469 205.762 647.011 206.403 647.404 207.241C647.802 208.079 648.001 209.088 648.001 210.267C648.001 211.446 647.805 212.457 647.412 213.3C647.019 214.138 646.479 214.784 645.792 215.239C645.106 215.688 644.322 215.913 643.441 215.913C642.778 215.913 642.236 215.802 641.815 215.579C641.398 215.357 641.072 215.097 640.835 214.798C640.598 214.5 640.416 214.235 640.288 214.003H640.16V219.791H638.037ZM640.118 210.246C640.118 211.013 640.229 211.685 640.451 212.263C640.674 212.84 640.996 213.293 641.417 213.619C641.839 213.941 642.355 214.102 642.966 214.102C643.6 214.102 644.13 213.934 644.556 213.598C644.983 213.257 645.305 212.795 645.522 212.213C645.745 211.631 645.856 210.975 645.856 210.246C645.856 209.526 645.747 208.88 645.529 208.307C645.316 207.734 644.994 207.282 644.564 206.95C644.137 206.619 643.605 206.453 642.966 206.453C642.35 206.453 641.829 206.612 641.403 206.929C640.982 207.246 640.662 207.689 640.444 208.257C640.226 208.825 640.118 209.488 640.118 210.246ZM655.482 215.92C654.407 215.92 653.482 215.691 652.705 215.231C651.933 214.767 651.337 214.116 650.915 213.278C650.499 212.436 650.29 211.448 650.29 210.317C650.29 209.199 650.499 208.214 650.915 207.362C651.337 206.51 651.924 205.845 652.677 205.366C653.434 204.888 654.32 204.649 655.333 204.649C655.948 204.649 656.545 204.751 657.123 204.954C657.7 205.158 658.219 205.478 658.678 205.913C659.137 206.349 659.5 206.915 659.765 207.611C660.03 208.302 660.162 209.142 660.162 210.132V210.885H651.491V209.294H658.081C658.081 208.735 657.968 208.24 657.741 207.81C657.513 207.374 657.194 207.031 656.782 206.78C656.375 206.529 655.896 206.403 655.347 206.403C654.75 206.403 654.23 206.55 653.785 206.844C653.344 207.132 653.003 207.511 652.762 207.98C652.525 208.444 652.407 208.948 652.407 209.493V210.736C652.407 211.465 652.535 212.085 652.79 212.597C653.051 213.108 653.413 213.498 653.877 213.768C654.341 214.034 654.883 214.166 655.503 214.166C655.906 214.166 656.273 214.109 656.604 213.996C656.936 213.877 657.222 213.702 657.464 213.47C657.705 213.238 657.89 212.952 658.018 212.611L660.027 212.973C659.866 213.565 659.578 214.083 659.161 214.528C658.749 214.969 658.231 215.312 657.606 215.558C656.985 215.8 656.277 215.92 655.482 215.92ZM662.919 215.7V204.791H664.971V206.524H665.085C665.284 205.937 665.634 205.475 666.136 205.139C666.643 204.798 667.215 204.628 667.855 204.628C667.987 204.628 668.143 204.632 668.323 204.642C668.508 204.651 668.652 204.663 668.757 204.677V206.709C668.671 206.685 668.52 206.659 668.302 206.631C668.084 206.597 667.866 206.581 667.649 206.581C667.147 206.581 666.699 206.687 666.306 206.9C665.918 207.109 665.61 207.4 665.383 207.774C665.156 208.143 665.042 208.565 665.042 209.038V215.7H662.919ZM671.165 215.7V201.155H680.284V203.044H673.359V207.476H679.808V209.358H673.359V213.811H680.369V215.7H671.165ZM684.887 201.155L688.935 213.001H689.099L693.147 201.155H695.519L690.285 215.7H687.749L682.515 201.155H684.887ZM698.019 201.155H700.683L705.314 212.462H705.484L710.115 201.155H712.778V215.7H710.69V205.175H710.555L706.265 215.679H704.532L700.243 205.168H700.108V215.7H698.019V201.155Z" fill="#177B63" fill-opacity="0.94"/>
<rect x="559.004" y="352.2" width="206" height="54" rx="7.5" fill="url(#paint5_linear_7304_4945)"/>
<rect x="559.004" y="352.2" width="206" height="54" rx="7.5" stroke="url(#paint6_linear_7304_4945)"/>
<rect x="559.004" y="352.2" width="206" height="54" rx="7.5" stroke="url(#paint7_linear_7304_4945)"/>
<path d="M612.021 386.7V372.155H614.216V378.476H621.467V372.155H623.669V386.7H621.467V380.358H614.216V386.7H612.021ZM628.437 390.791C628.12 390.791 627.831 390.765 627.571 390.713C627.31 390.666 627.116 390.614 626.988 390.557L627.5 388.817C627.888 388.921 628.233 388.966 628.537 388.952C628.84 388.937 629.107 388.824 629.339 388.611C629.576 388.398 629.784 388.05 629.964 387.567L630.227 386.842L626.235 375.791H628.508L631.271 384.257H631.385L634.147 375.791H636.427L631.931 388.156C631.723 388.724 631.458 389.205 631.136 389.598C630.814 389.996 630.43 390.294 629.985 390.493C629.54 390.692 629.024 390.791 628.437 390.791ZM638.823 390.791V375.791H640.897V377.56H641.074C641.197 377.332 641.375 377.07 641.607 376.771C641.839 376.473 642.161 376.213 642.573 375.99C642.985 375.763 643.529 375.649 644.206 375.649C645.087 375.649 645.873 375.872 646.564 376.317C647.256 376.762 647.798 377.403 648.191 378.241C648.588 379.079 648.787 380.088 648.787 381.267C648.787 382.446 648.591 383.457 648.198 384.3C647.805 385.138 647.265 385.784 646.579 386.239C645.892 386.688 645.108 386.913 644.228 386.913C643.565 386.913 643.023 386.802 642.601 386.579C642.185 386.357 641.858 386.097 641.621 385.798C641.384 385.5 641.202 385.235 641.074 385.003H640.946V390.791H638.823ZM640.904 381.246C640.904 382.013 641.015 382.685 641.238 383.263C641.46 383.84 641.782 384.293 642.204 384.619C642.625 384.941 643.141 385.102 643.752 385.102C644.386 385.102 644.917 384.934 645.343 384.598C645.769 384.257 646.091 383.795 646.309 383.213C646.531 382.631 646.642 381.975 646.642 381.246C646.642 380.526 646.534 379.88 646.316 379.307C646.103 378.734 645.781 378.282 645.35 377.95C644.924 377.619 644.391 377.453 643.752 377.453C643.136 377.453 642.615 377.612 642.189 377.929C641.768 378.246 641.448 378.689 641.231 379.257C641.013 379.825 640.904 380.488 640.904 381.246ZM656.268 386.92C655.194 386.92 654.268 386.691 653.491 386.231C652.72 385.767 652.123 385.116 651.702 384.278C651.285 383.436 651.077 382.448 651.077 381.317C651.077 380.199 651.285 379.214 651.702 378.362C652.123 377.51 652.71 376.845 653.463 376.366C654.221 375.888 655.106 375.649 656.119 375.649C656.735 375.649 657.331 375.751 657.909 375.954C658.487 376.158 659.005 376.478 659.464 376.913C659.924 377.349 660.286 377.915 660.551 378.611C660.816 379.302 660.949 380.142 660.949 381.132V381.885H652.277V380.294H658.868C658.868 379.735 658.754 379.24 658.527 378.81C658.3 378.374 657.98 378.031 657.568 377.78C657.161 377.529 656.683 377.403 656.133 377.403C655.537 377.403 655.016 377.55 654.571 377.844C654.131 378.132 653.79 378.511 653.548 378.98C653.311 379.444 653.193 379.948 653.193 380.493V381.736C653.193 382.465 653.321 383.085 653.577 383.597C653.837 384.108 654.199 384.498 654.663 384.768C655.127 385.034 655.669 385.166 656.29 385.166C656.692 385.166 657.059 385.109 657.39 384.996C657.722 384.877 658.008 384.702 658.25 384.47C658.491 384.238 658.676 383.952 658.804 383.611L660.814 383.973C660.653 384.565 660.364 385.083 659.947 385.528C659.535 385.969 659.017 386.312 658.392 386.558C657.772 386.8 657.064 386.92 656.268 386.92ZM663.705 386.7V375.791H665.757V377.524H665.871C666.07 376.937 666.42 376.475 666.922 376.139C667.429 375.798 668.002 375.628 668.641 375.628C668.774 375.628 668.93 375.632 669.11 375.642C669.294 375.651 669.439 375.663 669.543 375.677V377.709C669.458 377.685 669.306 377.659 669.088 377.631C668.871 377.597 668.653 377.581 668.435 377.581C667.933 377.581 667.486 377.687 667.093 377.9C666.704 378.109 666.397 378.4 666.169 378.774C665.942 379.143 665.828 379.565 665.828 380.038V386.7H663.705ZM675.985 386.92C674.929 386.92 674.02 386.681 673.258 386.203C672.5 385.72 671.918 385.055 671.511 384.207C671.104 383.36 670.9 382.389 670.9 381.295C670.9 380.187 671.108 379.21 671.525 378.362C671.942 377.51 672.529 376.845 673.286 376.366C674.044 375.888 674.936 375.649 675.964 375.649C676.793 375.649 677.531 375.803 678.18 376.111C678.829 376.414 679.352 376.84 679.749 377.389C680.152 377.938 680.391 378.58 680.467 379.314H678.4C678.286 378.802 678.026 378.362 677.619 377.993C677.216 377.623 676.677 377.439 675.999 377.439C675.408 377.439 674.889 377.595 674.444 377.908C674.004 378.215 673.66 378.656 673.414 379.229C673.168 379.797 673.045 380.469 673.045 381.246C673.045 382.041 673.166 382.728 673.407 383.305C673.649 383.883 673.989 384.33 674.43 384.648C674.875 384.965 675.398 385.123 675.999 385.123C676.402 385.123 676.766 385.05 677.093 384.903C677.425 384.752 677.702 384.536 677.924 384.257C678.151 383.978 678.31 383.641 678.4 383.248H680.467C680.391 383.954 680.161 384.584 679.778 385.138C679.394 385.692 678.881 386.127 678.237 386.445C677.597 386.762 676.847 386.92 675.985 386.92ZM687.733 386.92C686.71 386.92 685.818 386.686 685.055 386.217C684.293 385.748 683.701 385.093 683.28 384.25C682.858 383.407 682.648 382.422 682.648 381.295C682.648 380.164 682.858 379.174 683.28 378.327C683.701 377.479 684.293 376.821 685.055 376.352C685.818 375.883 686.71 375.649 687.733 375.649C688.756 375.649 689.648 375.883 690.41 376.352C691.173 376.821 691.765 377.479 692.186 378.327C692.607 379.174 692.818 380.164 692.818 381.295C692.818 382.422 692.607 383.407 692.186 384.25C691.765 385.093 691.173 385.748 690.41 386.217C689.648 386.686 688.756 386.92 687.733 386.92ZM687.74 385.138C688.403 385.138 688.952 384.963 689.388 384.612C689.823 384.262 690.145 383.795 690.354 383.213C690.567 382.631 690.673 381.989 690.673 381.288C690.673 380.592 690.567 379.953 690.354 379.371C690.145 378.784 689.823 378.312 689.388 377.957C688.952 377.602 688.403 377.425 687.74 377.425C687.072 377.425 686.518 377.602 686.078 377.957C685.642 378.312 685.318 378.784 685.105 379.371C684.897 379.953 684.793 380.592 684.793 381.288C684.793 381.989 684.897 382.631 685.105 383.213C685.318 383.795 685.642 384.262 686.078 384.612C686.518 384.963 687.072 385.138 687.74 385.138ZM695.588 386.7V375.791H697.641V377.524H697.755C697.954 376.937 698.304 376.475 698.806 376.139C699.312 375.798 699.885 375.628 700.525 375.628C700.657 375.628 700.813 375.632 700.993 375.642C701.178 375.651 701.322 375.663 701.427 375.677V377.709C701.341 377.685 701.19 377.659 700.972 377.631C700.754 377.597 700.536 377.581 700.319 377.581C699.817 377.581 699.369 377.687 698.976 377.9C698.588 378.109 698.28 378.4 698.053 378.774C697.826 379.143 697.712 379.565 697.712 380.038V386.7H695.588ZM707.975 386.92C706.901 386.92 705.975 386.691 705.198 386.231C704.427 385.767 703.83 385.116 703.409 384.278C702.992 383.436 702.784 382.448 702.784 381.317C702.784 380.199 702.992 379.214 703.409 378.362C703.83 377.51 704.417 376.845 705.17 376.366C705.928 375.888 706.813 375.649 707.826 375.649C708.442 375.649 709.038 375.751 709.616 375.954C710.194 376.158 710.712 376.478 711.171 376.913C711.631 377.349 711.993 377.915 712.258 378.611C712.523 379.302 712.656 380.142 712.656 381.132V381.885H703.984V380.294H710.575C710.575 379.735 710.461 379.24 710.234 378.81C710.007 378.374 709.687 378.031 709.275 377.78C708.868 377.529 708.39 377.403 707.84 377.403C707.244 377.403 706.723 377.55 706.278 377.844C705.838 378.132 705.497 378.511 705.255 378.98C705.018 379.444 704.9 379.948 704.9 380.493V381.736C704.9 382.465 705.028 383.085 705.284 383.597C705.544 384.108 705.906 384.498 706.37 384.768C706.834 385.034 707.376 385.166 707.997 385.166C708.399 385.166 708.766 385.109 709.098 384.996C709.429 384.877 709.715 384.702 709.957 384.47C710.198 384.238 710.383 383.952 710.511 383.611L712.521 383.973C712.36 384.565 712.071 385.083 711.654 385.528C711.242 385.969 710.724 386.312 710.099 386.558C709.479 386.8 708.771 386.92 707.975 386.92Z" fill="#177B63" fill-opacity="0.94"/>
</g>
<path d="M382.484 283.401C381.932 283.401 381.484 283.849 381.484 284.401C381.484 284.954 381.932 285.401 382.484 285.401L382.484 283.401ZM559.211 381.92C559.602 381.53 559.602 380.897 559.211 380.506L552.847 374.142C552.457 373.752 551.823 373.752 551.433 374.142C551.042 374.533 551.042 375.166 551.433 375.556L557.09 381.213L551.433 386.87C551.042 387.261 551.042 387.894 551.433 388.284C551.823 388.675 552.457 388.675 552.847 388.284L559.211 381.92ZM382.484 284.401L382.484 285.401L404.058 285.401L404.058 284.401L404.058 283.401L382.484 283.401L382.484 284.401ZM419.058 299.401H418.058V366.214H419.058H420.058V299.401H419.058ZM434.059 381.214L434.059 382.214L558.504 382.213L558.504 381.213L558.504 380.213L434.059 380.214L434.059 381.214ZM419.058 366.214H418.058C418.058 375.05 425.222 382.214 434.059 382.214L434.059 381.214L434.059 380.214C426.327 380.214 420.058 373.946 420.058 366.214H419.058ZM404.058 284.401L404.058 285.401C411.79 285.401 418.058 291.669 418.058 299.401H419.058H420.058C420.058 290.565 412.895 283.401 404.058 283.401L404.058 284.401Z" fill="#A0A9B8"/>
<path d="M384.664 258.5C384.112 258.5 383.664 258.948 383.664 259.5C383.664 260.052 384.112 260.5 384.664 260.5V258.5ZM559.212 207.131C559.602 206.74 559.602 206.107 559.212 205.717L552.848 199.353C552.457 198.962 551.824 198.962 551.434 199.353C551.043 199.743 551.043 200.376 551.434 200.767L557.09 206.424L551.434 212.081C551.043 212.471 551.043 213.104 551.434 213.495C551.824 213.885 552.457 213.885 552.848 213.495L559.212 207.131ZM416.775 244.5H417.775V221.424H416.775H415.775V244.5H416.775ZM431.775 206.424V207.424H558.505V206.424V205.424H431.775V206.424ZM384.664 259.5V260.5H401.775V259.5V258.5H384.664V259.5ZM416.775 221.424H417.775C417.775 213.692 424.043 207.424 431.775 207.424V206.424V205.424C422.939 205.424 415.775 212.587 415.775 221.424H416.775ZM416.775 244.5H415.775C415.775 252.232 409.507 258.5 401.775 258.5V259.5V260.5C410.612 260.5 417.775 253.337 417.775 244.5H416.775Z" fill="#A0A9B8"/>
<path d="M765.504 368.973C764.952 368.973 764.504 369.42 764.504 369.973C764.504 370.525 764.952 370.973 765.504 370.973V368.973ZM961.707 285.107C962.098 284.717 962.098 284.084 961.707 283.693L955.343 277.329C954.953 276.939 954.32 276.939 953.929 277.329C953.539 277.72 953.539 278.353 953.929 278.744L959.586 284.4L953.929 290.057C953.539 290.448 953.539 291.081 953.929 291.471C954.32 291.862 954.953 291.862 955.343 291.471L961.707 285.107ZM765.504 369.973V370.973H889.951V369.973V368.973H765.504V369.973ZM904.951 354.973H905.951V299.4H904.951H903.951V354.973H904.951ZM919.951 284.4V285.4H961V284.4V283.4H919.951V284.4ZM904.951 299.4H905.951C905.951 291.668 912.219 285.4 919.951 285.4V284.4V283.4C911.115 283.4 903.951 290.564 903.951 299.4H904.951ZM889.951 369.973V370.973C898.788 370.973 905.951 363.809 905.951 354.973H904.951H903.951C903.951 362.705 897.683 368.973 889.951 368.973V369.973Z" fill="#97FCE4"/>
<path d="M765.504 368.973C764.952 368.973 764.504 369.42 764.504 369.973C764.504 370.525 764.952 370.973 765.504 370.973V368.973ZM961.707 285.107C962.098 284.717 962.098 284.084 961.707 283.693L955.343 277.329C954.953 276.939 954.32 276.939 953.929 277.329C953.539 277.72 953.539 278.353 953.929 278.744L959.586 284.4L953.929 290.057C953.539 290.448 953.539 291.081 953.929 291.471C954.32 291.862 954.953 291.862 955.343 291.471L961.707 285.107ZM765.504 369.973V370.973H889.951V369.973V368.973H765.504V369.973ZM904.951 354.973H905.951V299.4H904.951H903.951V354.973H904.951ZM919.951 284.4V285.4H961V284.4V283.4H919.951V284.4ZM904.951 299.4H905.951C905.951 291.668 912.219 285.4 919.951 285.4V284.4V283.4C911.115 283.4 903.951 290.564 903.951 299.4H904.951ZM889.951 369.973V370.973C898.788 370.973 905.951 363.809 905.951 354.973H904.951H903.951C903.951 362.705 897.683 368.973 889.951 368.973V369.973Z" fill="black" fill-opacity="0.2"/>
<path d="M765.504 216.5C764.952 216.5 764.504 216.052 764.504 215.5C764.504 214.948 764.952 214.5 765.504 214.5V216.5ZM961.707 263.734C962.098 264.125 962.098 264.758 961.707 265.149L955.343 271.512C954.953 271.903 954.32 271.903 953.929 271.512C953.539 271.122 953.539 270.489 953.929 270.098L959.586 264.441L953.929 258.785C953.539 258.394 953.539 257.761 953.929 257.37C954.32 256.98 954.953 256.98 955.343 257.37L961.707 263.734ZM765.504 215.5V214.5H889.951V215.5V216.5H765.504V215.5ZM904.951 230.5H905.951V249.441H904.951H903.951V230.5H904.951ZM919.951 264.441V263.441H961V264.441V265.441H919.951V264.441ZM904.951 249.441H905.951C905.951 257.173 912.219 263.441 919.951 263.441V264.441V265.441C911.115 265.441 903.951 258.278 903.951 249.441H904.951ZM889.951 215.5V214.5C898.788 214.5 905.951 221.663 905.951 230.5H904.951H903.951C903.951 222.768 897.683 216.5 889.951 216.5V215.5Z" fill="#97FCE4"/>
<path d="M765.504 216.5C764.952 216.5 764.504 216.052 764.504 215.5C764.504 214.948 764.952 214.5 765.504 214.5V216.5ZM961.707 263.734C962.098 264.125 962.098 264.758 961.707 265.149L955.343 271.512C954.953 271.903 954.32 271.903 953.929 271.512C953.539 271.122 953.539 270.489 953.929 270.098L959.586 264.441L953.929 258.785C953.539 258.394 953.539 257.761 953.929 257.37C954.32 256.98 954.953 256.98 955.343 257.37L961.707 263.734ZM765.504 215.5V214.5H889.951V215.5V216.5H765.504V215.5ZM904.951 230.5H905.951V249.441H904.951H903.951V230.5H904.951ZM919.951 264.441V263.441H961V264.441V265.441H919.951V264.441ZM904.951 249.441H905.951C905.951 257.173 912.219 263.441 919.951 263.441V264.441V265.441C911.115 265.441 903.951 258.278 903.951 249.441H904.951ZM889.951 215.5V214.5C898.788 214.5 905.951 221.663 905.951 230.5H904.951H903.951C903.951 222.768 897.683 216.5 889.951 216.5V215.5Z" fill="black" fill-opacity="0.2"/>
<path d="M961 249.552C961.553 249.552 962 249.104 962 248.552C962 247.999 961.553 247.552 961 247.552V249.552ZM764.797 197.424C764.406 197.814 764.406 198.447 764.797 198.838L771.161 205.202C771.551 205.592 772.184 205.592 772.575 205.202C772.965 204.811 772.965 204.178 772.575 203.788L766.918 198.131L772.575 192.474C772.965 192.083 772.965 191.45 772.575 191.06C772.184 190.669 771.551 190.669 771.161 191.06L764.797 197.424ZM961 248.552V247.552H934.69V248.552V249.552H961V248.552ZM919.69 233.552H920.69V213.131H919.69H918.69V233.552H919.69ZM904.69 198.131V197.131H765.504V198.131V199.131H904.69V198.131ZM919.69 213.131H920.69C920.69 204.294 913.526 197.131 904.69 197.131V198.131V199.131C912.422 199.131 918.69 205.399 918.69 213.131H919.69ZM934.69 248.552V247.552C926.958 247.552 920.69 241.284 920.69 233.552H919.69H918.69C918.69 242.388 925.853 249.552 934.69 249.552V248.552Z" fill="#A0A9B8"/>
<path d="M961 299.51C961.553 299.51 962 299.062 962 298.51C962 297.957 961.553 297.51 961 297.51V299.51ZM764.797 389.797C764.406 390.188 764.406 390.821 764.797 391.212L771.161 397.576C771.551 397.966 772.184 397.966 772.575 397.576C772.965 397.185 772.965 396.552 772.575 396.161L766.918 390.504L772.575 384.848C772.965 384.457 772.965 383.824 772.575 383.433C772.184 383.043 771.551 383.043 771.161 383.433L764.797 389.797ZM961 298.51V297.51H933.703V298.51V299.51H961V298.51ZM918.703 313.51H917.703V375.504H918.703H919.703V313.51H918.703ZM903.703 390.504L903.703 389.504L765.504 389.504L765.504 390.504L765.504 391.504L903.703 391.504L903.703 390.504ZM918.703 375.504H917.703C917.703 383.236 911.435 389.504 903.703 389.504L903.703 390.504L903.703 391.504C912.54 391.504 919.703 384.341 919.703 375.504H918.703ZM933.703 298.51V297.51C924.867 297.51 917.703 304.673 917.703 313.51H918.703H919.703C919.703 305.778 925.971 299.51 933.703 299.51V298.51Z" fill="#A0A9B8"/>
<g filter="url(#filter1_dd_7304_4945)">
<rect x="960.504" y="230" width="193" height="80" rx="8" fill="url(#paint8_linear_7304_4945)" fill-opacity="0.23" shape-rendering="crispEdges"/>
<rect x="961.004" y="230.5" width="192" height="79" rx="7.5" stroke="url(#paint9_linear_7304_4945)" shape-rendering="crispEdges"/>
<path d="M1038.92 264.844V262.955H1050.18V264.844H1045.64V277.5H1043.45V264.844H1038.92ZM1053.06 277.5V262.955H1062.18V264.844H1055.26V269.276H1061.71V271.158H1055.26V275.611H1062.27V277.5H1053.06ZM1065.52 277.5V262.955H1074.63V264.844H1067.71V269.276H1074.16V271.158H1067.71V275.611H1074.72V277.5H1065.52Z" fill="black"/>
</g>
<g filter="url(#filter2_ddd_7304_4945)">
<rect x="136.496" y="230" width="246.2" height="80" rx="8" fill="url(#paint10_linear_7304_4945)" fill-opacity="0.23" shape-rendering="crispEdges"/>
<rect x="136.996" y="230.5" width="245.2" height="79" rx="7.5" stroke="url(#paint11_linear_7304_4945)" stroke-opacity="0.37" shape-rendering="crispEdges"/>
<path d="M159.175 290.038C157.951 290.038 156.819 289.741 155.78 289.147C154.778 288.554 153.98 287.756 153.387 286.754C152.793 285.715 152.496 284.583 152.496 283.359L152.496 274.674L157.005 277.3V283.359C157.005 283.952 157.209 284.472 157.617 284.917C158.062 285.325 158.582 285.53 159.175 285.53H185.892C186.486 285.53 186.987 285.325 187.395 284.917C187.841 284.472 188.063 283.952 188.063 283.359V274.397C188.063 273.804 187.841 273.303 187.395 272.895C186.987 272.486 186.486 272.282 185.892 272.282H159.175C157.951 272.282 156.819 271.985 155.78 271.392C154.778 270.761 153.98 269.945 153.387 268.943C152.793 267.941 152.496 266.828 152.496 265.603V256.642C152.496 255.417 152.793 254.304 153.387 253.302C153.98 252.263 154.778 251.447 155.78 250.853C156.819 250.259 157.951 249.962 159.175 249.962H185.892C187.117 249.962 188.23 250.259 189.232 250.853C190.271 251.447 191.087 252.263 191.681 253.302C192.275 254.304 192.572 255.417 192.572 256.642V265.328L188.07 262.729L188.063 256.642C188.063 256.048 187.841 255.547 187.395 255.139C186.987 254.694 186.486 254.471 185.892 254.471H159.175C158.582 254.471 158.062 254.694 157.617 255.139C157.209 255.547 157.005 256.048 157.005 256.642V265.603C157.005 266.197 157.209 266.698 157.617 267.106C158.062 267.514 158.582 267.718 159.175 267.718H185.892C187.117 267.718 188.23 268.034 189.232 268.664C190.271 269.258 191.087 270.056 191.681 271.058C192.275 272.06 192.572 273.173 192.572 274.397V283.359C192.572 284.583 192.275 285.715 191.681 286.754C191.087 287.756 190.271 288.554 189.232 289.147C188.23 289.741 187.117 290.038 185.892 290.038H159.175Z" fill="#FA00FF"/>
<path d="M161.251 290.038C160.026 290.038 158.894 289.741 157.855 289.147C156.853 288.554 156.056 287.756 155.462 286.754C154.868 285.715 154.571 284.583 154.571 283.359L154.571 274.674L159.08 277.3V283.359C159.08 283.952 159.284 284.472 159.692 284.917C160.137 285.325 160.657 285.53 161.251 285.53H187.968C188.561 285.53 189.062 285.325 189.47 284.917C189.916 284.472 190.138 283.952 190.138 283.359V274.397C190.138 273.804 189.916 273.303 189.47 272.895C189.062 272.486 188.561 272.282 187.968 272.282H161.251C160.026 272.282 158.894 271.985 157.855 271.392C156.853 270.761 156.056 269.945 155.462 268.943C154.868 267.941 154.571 266.828 154.571 265.603V256.642C154.571 255.417 154.868 254.304 155.462 253.302C156.056 252.263 156.853 251.447 157.855 250.853C158.894 250.259 160.026 249.962 161.251 249.962H187.968C189.192 249.962 190.305 250.259 191.307 250.853C192.346 251.447 193.163 252.263 193.756 253.302C194.35 254.304 194.647 255.417 194.647 256.642V265.328L190.145 262.729L190.138 256.642C190.138 256.048 189.916 255.547 189.47 255.139C189.062 254.694 188.561 254.471 187.968 254.471H161.251C160.657 254.471 160.137 254.694 159.692 255.139C159.284 255.547 159.08 256.048 159.08 256.642V265.603C159.08 266.197 159.284 266.698 159.692 267.106C160.137 267.514 160.657 267.718 161.251 267.718H187.968C189.192 267.718 190.305 268.034 191.307 268.664C192.346 269.258 193.163 270.056 193.756 271.058C194.35 272.06 194.647 273.173 194.647 274.397V283.359C194.647 284.583 194.35 285.715 193.756 286.754C193.163 287.756 192.346 288.554 191.307 289.147C190.305 289.741 189.192 290.038 187.968 290.038H161.251Z" fill="#00FFF2"/>
<path d="M160.137 290.038C158.913 290.038 157.781 289.741 156.742 289.147C155.74 288.553 154.942 287.755 154.349 286.754C153.755 285.715 153.458 284.583 153.458 283.358L153.458 274.674L157.967 277.299V283.358C157.967 283.952 158.171 284.471 158.579 284.917C159.024 285.325 159.544 285.529 160.137 285.529H186.854C187.448 285.529 187.949 285.325 188.357 284.917C188.802 284.471 189.025 283.952 189.025 283.358V274.397C189.025 273.803 188.802 273.302 188.357 272.894C187.949 272.486 187.448 272.282 186.854 272.282H160.137C158.913 272.282 157.781 271.985 156.742 271.391C155.74 270.76 154.942 269.944 154.349 268.942C153.755 267.94 153.458 266.827 153.458 265.603V256.641C153.458 255.417 153.755 254.303 154.349 253.302C154.942 252.263 155.74 251.446 156.742 250.852C157.781 250.259 158.913 249.962 160.137 249.962H186.854C188.079 249.962 189.192 250.259 190.194 250.852C191.233 251.446 192.049 252.263 192.643 253.302C193.237 254.303 193.534 255.417 193.534 256.641V265.327L189.031 262.728L189.025 256.641C189.025 256.047 188.802 255.547 188.357 255.138C187.949 254.693 187.448 254.47 186.854 254.47H160.137C159.544 254.47 159.024 254.693 158.579 255.138C158.171 255.547 157.967 256.047 157.967 256.641V265.603C157.967 266.196 158.171 266.697 158.579 267.105C159.024 267.514 159.544 267.718 160.137 267.718H186.854C188.079 267.718 189.192 268.033 190.194 268.664C191.233 269.258 192.049 270.055 192.643 271.057C193.237 272.059 193.534 273.172 193.534 274.397V283.358C193.534 284.583 193.237 285.715 192.643 286.754C192.049 287.755 191.233 288.553 190.194 289.147C189.192 289.741 188.079 290.038 186.854 290.038H160.137Z" fill="#07070F"/>
<path d="M216.895 259.688L215.969 259.949C215.878 259.687 215.749 259.451 215.583 259.239C215.416 259.027 215.198 258.858 214.929 258.733C214.664 258.608 214.335 258.545 213.941 258.545C213.35 258.545 212.865 258.686 212.486 258.966C212.107 259.246 211.918 259.608 211.918 260.051C211.918 260.426 212.047 260.731 212.304 260.966C212.566 261.197 212.967 261.381 213.509 261.517L214.827 261.841C215.558 262.019 216.105 262.301 216.469 262.688C216.836 263.074 217.02 263.559 217.02 264.142C217.02 264.634 216.884 265.072 216.611 265.455C216.338 265.837 215.958 266.138 215.469 266.358C214.984 266.574 214.422 266.682 213.782 266.682C212.929 266.682 212.227 266.491 211.674 266.108C211.121 265.722 210.766 265.165 210.611 264.438L211.583 264.199C211.708 264.718 211.952 265.11 212.316 265.375C212.683 265.64 213.166 265.773 213.764 265.773C214.435 265.773 214.971 265.623 215.372 265.324C215.774 265.021 215.975 264.642 215.975 264.188C215.975 263.835 215.857 263.54 215.622 263.301C215.388 263.059 215.032 262.881 214.554 262.767L213.128 262.426C212.371 262.244 211.81 261.956 211.446 261.562C211.083 261.169 210.901 260.68 210.901 260.097C210.901 259.616 211.032 259.193 211.293 258.83C211.554 258.462 211.914 258.174 212.372 257.966C212.831 257.758 213.353 257.653 213.941 257.653C214.74 257.653 215.378 257.835 215.855 258.199C216.336 258.559 216.683 259.055 216.895 259.688ZM219.566 266.5V257.773H220.583V266.5H219.566ZM220.083 256.273C219.875 256.273 219.697 256.203 219.549 256.062C219.401 255.919 219.327 255.746 219.327 255.545C219.327 255.345 219.401 255.174 219.549 255.034C219.697 254.89 219.875 254.818 220.083 254.818C220.291 254.818 220.469 254.89 220.617 255.034C220.765 255.174 220.839 255.345 220.839 255.545C220.839 255.746 220.765 255.919 220.617 256.062C220.469 256.203 220.291 256.273 220.083 256.273ZM224.589 254.864V266.5H223.578V254.864H224.589ZM228.597 261.045V266.5H227.585V254.864H228.597V259.142H228.688C228.892 258.691 229.208 258.331 229.636 258.062C230.068 257.794 230.614 257.659 231.273 257.659C231.864 257.659 232.383 257.78 232.83 258.023C233.277 258.265 233.625 258.623 233.875 259.097C234.125 259.57 234.25 260.153 234.25 260.847V266.5H233.233V260.909C233.233 260.189 233.032 259.623 232.631 259.21C232.233 258.794 231.695 258.585 231.017 258.585C230.551 258.585 230.136 258.684 229.773 258.881C229.409 259.078 229.121 259.362 228.909 259.733C228.701 260.1 228.597 260.538 228.597 261.045ZM240.625 266.682C239.872 266.682 239.205 266.491 238.625 266.108C238.05 265.725 237.599 265.197 237.273 264.523C236.947 263.845 236.785 263.062 236.785 262.176C236.785 261.282 236.947 260.496 237.273 259.818C237.599 259.136 238.05 258.606 238.625 258.227C239.205 257.845 239.872 257.653 240.625 257.653C241.379 257.653 242.044 257.845 242.62 258.227C243.196 258.61 243.646 259.14 243.972 259.818C244.302 260.496 244.466 261.282 244.466 262.176C244.466 263.062 244.303 263.845 243.978 264.523C243.652 265.197 243.199 265.725 242.62 266.108C242.044 266.491 241.379 266.682 240.625 266.682ZM240.625 265.756C241.231 265.756 241.745 265.593 242.165 265.267C242.586 264.941 242.904 264.508 243.12 263.966C243.339 263.424 243.449 262.828 243.449 262.176C243.449 261.525 243.339 260.926 243.12 260.381C242.904 259.835 242.586 259.398 242.165 259.068C241.745 258.739 241.231 258.574 240.625 258.574C240.023 258.574 239.51 258.739 239.086 259.068C238.665 259.398 238.345 259.835 238.125 260.381C237.91 260.926 237.802 261.525 237.802 262.176C237.802 262.828 237.91 263.424 238.125 263.966C238.345 264.508 238.665 264.941 239.086 265.267C239.506 265.593 240.019 265.756 240.625 265.756ZM252.552 263.165V257.773H253.563V266.5H252.552V265.051H252.472C252.268 265.498 251.944 265.871 251.501 266.17C251.058 266.466 250.516 266.614 249.876 266.614C249.319 266.614 248.825 266.492 248.393 266.25C247.961 266.004 247.622 265.644 247.376 265.17C247.13 264.697 247.007 264.116 247.007 263.426V257.773H248.018V263.364C248.018 264.045 248.219 264.595 248.62 265.011C249.022 265.424 249.537 265.631 250.166 265.631C250.56 265.631 250.938 265.536 251.302 265.347C251.666 265.157 251.965 264.881 252.2 264.517C252.435 264.15 252.552 263.699 252.552 263.165ZM260.089 266.682C259.275 266.682 258.57 266.492 257.976 266.114C257.381 265.731 256.921 265.203 256.595 264.528C256.273 263.85 256.112 263.07 256.112 262.188C256.112 261.309 256.273 260.528 256.595 259.847C256.921 259.161 257.37 258.625 257.942 258.239C258.517 257.848 259.182 257.653 259.936 257.653C260.409 257.653 260.866 257.741 261.305 257.915C261.745 258.085 262.139 258.348 262.487 258.705C262.839 259.057 263.118 259.502 263.322 260.04C263.527 260.574 263.629 261.206 263.629 261.938V262.438H256.811V261.545H262.595C262.595 260.985 262.481 260.481 262.254 260.034C262.031 259.583 261.718 259.227 261.317 258.966C260.919 258.705 260.459 258.574 259.936 258.574C259.383 258.574 258.896 258.722 258.476 259.017C258.055 259.312 257.726 259.703 257.487 260.188C257.252 260.672 257.133 261.203 257.129 261.778V262.312C257.129 263.006 257.248 263.612 257.487 264.131C257.729 264.646 258.072 265.045 258.515 265.33C258.959 265.614 259.483 265.756 260.089 265.756C260.502 265.756 260.864 265.691 261.175 265.562C261.489 265.434 261.752 265.261 261.964 265.045C262.18 264.826 262.343 264.585 262.453 264.324L263.413 264.636C263.281 265.004 263.063 265.343 262.76 265.653C262.461 265.964 262.086 266.214 261.635 266.403C261.188 266.589 260.673 266.682 260.089 266.682ZM269.615 257.773V258.653H265.45V257.773H269.615ZM266.752 255.682H267.769V264.222C267.769 264.585 267.831 264.871 267.956 265.08C268.081 265.284 268.244 265.43 268.445 265.517C268.646 265.6 268.86 265.642 269.087 265.642C269.219 265.642 269.333 265.634 269.428 265.619C269.522 265.6 269.606 265.581 269.678 265.562L269.894 266.477C269.795 266.515 269.674 266.549 269.53 266.58C269.386 266.614 269.208 266.631 268.996 266.631C268.625 266.631 268.267 266.549 267.922 266.386C267.581 266.223 267.301 265.981 267.081 265.659C266.861 265.337 266.752 264.938 266.752 264.46V255.682ZM275.67 257.773V258.653H271.505V257.773H275.67ZM272.806 255.682H273.823V264.222C273.823 264.585 273.886 264.871 274.011 265.08C274.136 265.284 274.298 265.43 274.499 265.517C274.7 265.6 274.914 265.642 275.141 265.642C275.274 265.642 275.387 265.634 275.482 265.619C275.577 265.6 275.66 265.581 275.732 265.562L275.948 266.477C275.85 266.515 275.728 266.549 275.584 266.58C275.44 266.614 275.262 266.631 275.05 266.631C274.679 266.631 274.321 266.549 273.976 266.386C273.636 266.223 273.355 265.981 273.136 265.659C272.916 265.337 272.806 264.938 272.806 264.46V255.682ZM281.721 266.682C280.907 266.682 280.202 266.492 279.608 266.114C279.013 265.731 278.553 265.203 278.227 264.528C277.905 263.85 277.744 263.07 277.744 262.188C277.744 261.309 277.905 260.528 278.227 259.847C278.553 259.161 279.001 258.625 279.573 258.239C280.149 257.848 280.814 257.653 281.568 257.653C282.041 257.653 282.498 257.741 282.937 257.915C283.376 258.085 283.77 258.348 284.119 258.705C284.471 259.057 284.75 259.502 284.954 260.04C285.159 260.574 285.261 261.206 285.261 261.938V262.438H278.443V261.545H284.227C284.227 260.985 284.113 260.481 283.886 260.034C283.662 259.583 283.35 259.227 282.948 258.966C282.551 258.705 282.09 258.574 281.568 258.574C281.015 258.574 280.528 258.722 280.108 259.017C279.687 259.312 279.358 259.703 279.119 260.188C278.884 260.672 278.765 261.203 278.761 261.778V262.312C278.761 263.006 278.88 263.612 279.119 264.131C279.361 264.646 279.704 265.045 280.147 265.33C280.59 265.614 281.115 265.756 281.721 265.756C282.134 265.756 282.496 265.691 282.806 265.562C283.121 265.434 283.384 265.261 283.596 265.045C283.812 264.826 283.975 264.585 284.085 264.324L285.045 264.636C284.912 265.004 284.695 265.343 284.392 265.653C284.092 265.964 283.717 266.214 283.267 266.403C282.82 266.589 282.305 266.682 281.721 266.682ZM288.616 266.585C288.393 266.585 288.2 266.506 288.037 266.347C287.878 266.184 287.798 265.991 287.798 265.767C287.798 265.54 287.878 265.347 288.037 265.188C288.2 265.028 288.393 264.949 288.616 264.949C288.844 264.949 289.037 265.028 289.196 265.188C289.355 265.347 289.435 265.54 289.435 265.767C289.435 265.915 289.397 266.051 289.321 266.176C289.249 266.301 289.151 266.402 289.026 266.477C288.904 266.549 288.768 266.585 288.616 266.585ZM295.955 266.682C295.141 266.682 294.436 266.492 293.841 266.114C293.247 265.731 292.786 265.203 292.461 264.528C292.139 263.85 291.978 263.07 291.978 262.188C291.978 261.309 292.139 260.528 292.461 259.847C292.786 259.161 293.235 258.625 293.807 258.239C294.383 257.848 295.048 257.653 295.802 257.653C296.275 257.653 296.731 257.741 297.171 257.915C297.61 258.085 298.004 258.348 298.353 258.705C298.705 259.057 298.983 259.502 299.188 260.04C299.392 260.574 299.495 261.206 299.495 261.938V262.438H292.677V261.545H298.461C298.461 260.985 298.347 260.481 298.12 260.034C297.896 259.583 297.584 259.227 297.182 258.966C296.784 258.705 296.324 258.574 295.802 258.574C295.248 258.574 294.762 258.722 294.341 259.017C293.921 259.312 293.591 259.703 293.353 260.188C293.118 260.672 292.998 261.203 292.995 261.778V262.312C292.995 263.006 293.114 263.612 293.353 264.131C293.595 264.646 293.938 265.045 294.381 265.33C294.824 265.614 295.349 265.756 295.955 265.756C296.368 265.756 296.73 265.691 297.04 265.562C297.355 265.434 297.618 265.261 297.83 265.045C298.046 264.826 298.209 264.585 298.319 264.324L299.279 264.636C299.146 265.004 298.928 265.343 298.625 265.653C298.326 265.964 297.951 266.214 297.5 266.403C297.053 266.589 296.538 266.682 295.955 266.682ZM302.434 257.773L304.684 261.494L306.934 257.773H308.11L305.303 262.136L308.11 266.5H306.934L304.684 262.898L302.434 266.5H301.264L304.036 262.136L301.264 257.773H302.434ZM313.601 266.682C312.82 266.682 312.14 266.487 311.561 266.097C310.985 265.706 310.538 265.172 310.22 264.494C309.902 263.816 309.743 263.044 309.743 262.176C309.743 261.301 309.904 260.523 310.226 259.841C310.551 259.159 311.002 258.625 311.578 258.239C312.154 257.848 312.822 257.653 313.584 257.653C314.167 257.653 314.695 257.767 315.169 257.994C315.642 258.218 316.032 258.534 316.339 258.943C316.65 259.348 316.845 259.822 316.924 260.364H315.902C315.796 259.871 315.54 259.451 315.135 259.102C314.733 258.75 314.222 258.574 313.601 258.574C313.044 258.574 312.551 258.725 312.123 259.028C311.695 259.328 311.36 259.746 311.118 260.284C310.879 260.818 310.76 261.437 310.76 262.142C310.76 262.85 310.877 263.477 311.112 264.023C311.347 264.564 311.676 264.989 312.101 265.295C312.529 265.602 313.029 265.756 313.601 265.756C313.987 265.756 314.339 265.684 314.657 265.54C314.979 265.392 315.248 265.184 315.464 264.915C315.684 264.646 315.832 264.326 315.907 263.955H316.93C316.854 264.481 316.667 264.951 316.368 265.364C316.072 265.773 315.688 266.095 315.214 266.33C314.745 266.564 314.207 266.682 313.601 266.682ZM320.429 261.045V266.5H319.418V254.864H320.429V259.142H320.52C320.725 258.691 321.041 258.331 321.469 258.062C321.901 257.794 322.446 257.659 323.105 257.659C323.696 257.659 324.215 257.78 324.662 258.023C325.109 258.265 325.458 258.623 325.708 259.097C325.958 259.57 326.083 260.153 326.083 260.847V266.5H325.065V260.909C325.065 260.189 324.865 259.623 324.463 259.21C324.065 258.794 323.528 258.585 322.85 258.585C322.384 258.585 321.969 258.684 321.605 258.881C321.242 259.078 320.954 259.362 320.742 259.733C320.533 260.1 320.429 260.538 320.429 261.045ZM331.503 266.699C330.977 266.699 330.496 266.597 330.06 266.392C329.625 266.184 329.278 265.884 329.02 265.494C328.763 265.1 328.634 264.623 328.634 264.062C328.634 263.631 328.716 263.267 328.878 262.972C329.041 262.676 329.272 262.434 329.572 262.244C329.871 262.055 330.225 261.905 330.634 261.795C331.043 261.686 331.494 261.6 331.986 261.54C332.475 261.479 332.888 261.426 333.225 261.381C333.566 261.335 333.825 261.263 334.003 261.165C334.181 261.066 334.27 260.907 334.27 260.688V260.483C334.27 259.888 334.092 259.42 333.736 259.08C333.384 258.735 332.877 258.562 332.214 258.562C331.585 258.562 331.072 258.701 330.674 258.977C330.28 259.254 330.003 259.58 329.844 259.955L328.884 259.608C329.081 259.131 329.354 258.75 329.702 258.466C330.051 258.178 330.441 257.972 330.873 257.847C331.305 257.718 331.742 257.653 332.185 257.653C332.519 257.653 332.865 257.697 333.225 257.784C333.589 257.871 333.926 258.023 334.236 258.239C334.547 258.451 334.799 258.748 334.992 259.131C335.185 259.509 335.282 259.991 335.282 260.574V266.5H334.27V265.119H334.208C334.087 265.377 333.907 265.627 333.668 265.869C333.43 266.112 333.13 266.311 332.77 266.466C332.411 266.621 331.988 266.699 331.503 266.699ZM331.64 265.773C332.178 265.773 332.644 265.653 333.037 265.415C333.431 265.176 333.734 264.86 333.947 264.466C334.162 264.068 334.27 263.631 334.27 263.153V261.892C334.195 261.964 334.068 262.028 333.89 262.085C333.716 262.142 333.513 262.193 333.282 262.239C333.055 262.28 332.827 262.316 332.6 262.347C332.373 262.377 332.168 262.403 331.986 262.426C331.494 262.487 331.073 262.581 330.725 262.71C330.377 262.839 330.109 263.017 329.924 263.244C329.738 263.468 329.645 263.756 329.645 264.108C329.645 264.638 329.835 265.049 330.214 265.341C330.592 265.629 331.068 265.773 331.64 265.773ZM339.304 261.045V266.5H338.292V257.773H339.275V259.142H339.366C339.571 258.695 339.889 258.337 340.321 258.068C340.756 257.795 341.294 257.659 341.934 257.659C342.521 257.659 343.036 257.782 343.48 258.028C343.927 258.271 344.273 258.629 344.519 259.102C344.769 259.576 344.894 260.157 344.894 260.847V266.5H343.883V260.909C343.883 260.193 343.682 259.627 343.281 259.21C342.883 258.794 342.349 258.585 341.679 258.585C341.22 258.585 340.813 258.684 340.457 258.881C340.101 259.078 339.819 259.362 339.61 259.733C339.406 260.1 339.304 260.538 339.304 261.045ZM351.207 269.955C350.613 269.955 350.092 269.877 349.645 269.722C349.198 269.57 348.821 269.362 348.514 269.097C348.207 268.831 347.969 268.534 347.798 268.205L348.628 267.659C348.753 267.879 348.919 268.095 349.128 268.307C349.34 268.519 349.615 268.695 349.952 268.835C350.293 268.975 350.711 269.045 351.207 269.045C351.98 269.045 352.603 268.852 353.077 268.466C353.554 268.08 353.793 267.479 353.793 266.665V264.699H353.702C353.584 264.964 353.416 265.229 353.196 265.494C352.976 265.756 352.688 265.973 352.332 266.148C351.98 266.322 351.543 266.409 351.02 266.409C350.323 266.409 349.704 266.237 349.162 265.892C348.624 265.547 348.2 265.055 347.889 264.415C347.582 263.771 347.429 263.004 347.429 262.114C347.429 261.231 347.579 260.455 347.878 259.784C348.181 259.114 348.603 258.591 349.145 258.216C349.686 257.841 350.317 257.653 351.037 257.653C351.571 257.653 352.014 257.748 352.366 257.938C352.719 258.123 353.001 258.354 353.213 258.631C353.429 258.907 353.597 259.176 353.719 259.438H353.821V257.773H354.81V266.727C354.81 267.466 354.652 268.074 354.338 268.551C354.024 269.028 353.596 269.381 353.054 269.608C352.512 269.839 351.897 269.955 351.207 269.955ZM351.139 265.483C351.7 265.483 352.179 265.348 352.577 265.08C352.974 264.807 353.279 264.417 353.491 263.909C353.704 263.402 353.81 262.797 353.81 262.097C353.81 261.415 353.705 260.811 353.497 260.284C353.289 259.754 352.986 259.337 352.588 259.034C352.194 258.727 351.711 258.574 351.139 258.574C350.556 258.574 350.063 258.731 349.662 259.045C349.26 259.36 348.957 259.784 348.753 260.318C348.548 260.848 348.446 261.441 348.446 262.097C348.446 262.763 348.55 263.352 348.758 263.864C348.967 264.371 349.272 264.769 349.673 265.057C350.075 265.341 350.563 265.483 351.139 265.483ZM361.336 266.682C360.521 266.682 359.817 266.492 359.222 266.114C358.627 265.731 358.167 265.203 357.841 264.528C357.519 263.85 357.358 263.07 357.358 262.188C357.358 261.309 357.519 260.528 357.841 259.847C358.167 259.161 358.616 258.625 359.188 258.239C359.764 257.848 360.428 257.653 361.182 257.653C361.656 257.653 362.112 257.741 362.551 257.915C362.991 258.085 363.385 258.348 363.733 258.705C364.086 259.057 364.364 259.502 364.568 260.04C364.773 260.574 364.875 261.206 364.875 261.938V262.438H358.057V261.545H363.841C363.841 260.985 363.728 260.481 363.5 260.034C363.277 259.583 362.964 259.227 362.563 258.966C362.165 258.705 361.705 258.574 361.182 258.574C360.629 258.574 360.142 258.722 359.722 259.017C359.301 259.312 358.972 259.703 358.733 260.188C358.498 260.672 358.379 261.203 358.375 261.778V262.312C358.375 263.006 358.495 263.612 358.733 264.131C358.976 264.646 359.318 265.045 359.762 265.33C360.205 265.614 360.729 265.756 361.336 265.756C361.748 265.756 362.11 265.691 362.421 265.562C362.735 265.434 362.998 265.261 363.211 265.045C363.426 264.826 363.589 264.585 363.699 264.324L364.659 264.636C364.527 265.004 364.309 265.343 364.006 265.653C363.707 265.964 363.332 266.214 362.881 266.403C362.434 266.589 361.919 266.682 361.336 266.682Z" fill="#07070F"/>
<path d="M210.489 277.109V275.409H220.62V277.109H216.536V288.5H214.567V277.109H210.489ZM222.046 288.5V278.682H223.893V280.241H223.996C224.175 279.713 224.49 279.298 224.942 278.995C225.398 278.688 225.913 278.535 226.489 278.535C226.608 278.535 226.749 278.539 226.911 278.548C227.077 278.556 227.207 278.567 227.3 278.58V280.408C227.224 280.386 227.087 280.363 226.891 280.337C226.695 280.308 226.499 280.293 226.303 280.293C225.852 280.293 225.449 280.388 225.095 280.58C224.746 280.768 224.469 281.03 224.264 281.366C224.06 281.699 223.957 282.078 223.957 282.504V288.5H222.046ZM232.084 288.717C231.462 288.717 230.899 288.602 230.396 288.372C229.893 288.138 229.495 287.799 229.201 287.356C228.911 286.913 228.766 286.369 228.766 285.726C228.766 285.172 228.873 284.716 229.086 284.358C229.299 284 229.587 283.717 229.949 283.508C230.311 283.299 230.716 283.141 231.163 283.035C231.611 282.928 232.067 282.847 232.531 282.792C233.119 282.724 233.597 282.668 233.963 282.626C234.329 282.579 234.596 282.504 234.762 282.402C234.928 282.3 235.011 282.134 235.011 281.903V281.859C235.011 281.3 234.854 280.868 234.538 280.561C234.227 280.254 233.763 280.101 233.145 280.101C232.501 280.101 231.994 280.244 231.623 280.529C231.257 280.81 231.003 281.124 230.863 281.469L229.067 281.06C229.28 280.463 229.591 279.982 230 279.615C230.413 279.244 230.888 278.976 231.425 278.81C231.962 278.639 232.527 278.554 233.119 278.554C233.511 278.554 233.927 278.601 234.366 278.695C234.809 278.784 235.222 278.95 235.606 279.193C235.994 279.436 236.311 279.783 236.558 280.235C236.805 280.683 236.929 281.264 236.929 281.98V288.5H235.062V287.158H234.986C234.862 287.405 234.677 287.648 234.43 287.886C234.182 288.125 233.865 288.323 233.477 288.481C233.089 288.638 232.625 288.717 232.084 288.717ZM232.499 287.183C233.028 287.183 233.479 287.079 233.854 286.87C234.234 286.661 234.521 286.388 234.717 286.052C234.918 285.711 235.018 285.347 235.018 284.959V283.693C234.949 283.761 234.817 283.825 234.621 283.885C234.43 283.94 234.21 283.989 233.963 284.032C233.716 284.07 233.475 284.107 233.241 284.141C233.006 284.17 232.81 284.196 232.653 284.217C232.282 284.264 231.943 284.343 231.636 284.454C231.334 284.565 231.091 284.724 230.908 284.933C230.729 285.138 230.639 285.411 230.639 285.751C230.639 286.224 230.814 286.582 231.163 286.825C231.513 287.064 231.958 287.183 232.499 287.183ZM243.51 288.692C242.717 288.692 242.01 288.489 241.388 288.085C240.77 287.675 240.284 287.094 239.93 286.339C239.581 285.581 239.406 284.671 239.406 283.61C239.406 282.549 239.583 281.641 239.937 280.887C240.295 280.133 240.785 279.555 241.407 279.155C242.029 278.754 242.734 278.554 243.523 278.554C244.132 278.554 244.622 278.656 244.993 278.861C245.368 279.061 245.658 279.295 245.862 279.564C246.071 279.832 246.233 280.069 246.348 280.273H246.463V275.409H248.374V288.5H246.508V286.972H246.348C246.233 287.181 246.067 287.42 245.849 287.688C245.636 287.957 245.342 288.191 244.967 288.391C244.592 288.592 244.107 288.692 243.51 288.692ZM243.932 287.062C244.482 287.062 244.946 286.917 245.325 286.627C245.709 286.333 245.999 285.926 246.195 285.406C246.395 284.886 246.495 284.281 246.495 283.591C246.495 282.909 246.397 282.312 246.201 281.801C246.005 281.29 245.717 280.891 245.338 280.606C244.959 280.32 244.49 280.178 243.932 280.178C243.357 280.178 242.877 280.327 242.494 280.625C242.11 280.923 241.82 281.33 241.624 281.846C241.433 282.362 241.337 282.943 241.337 283.591C241.337 284.247 241.435 284.837 241.631 285.362C241.827 285.886 242.116 286.301 242.5 286.608C242.888 286.911 243.365 287.062 243.932 287.062ZM255.694 288.698C254.726 288.698 253.893 288.491 253.194 288.078C252.5 287.661 251.963 287.075 251.584 286.32C251.209 285.562 251.021 284.673 251.021 283.655C251.021 282.649 251.209 281.763 251.584 280.996C251.963 280.229 252.491 279.63 253.169 279.2C253.851 278.769 254.647 278.554 255.559 278.554C256.113 278.554 256.65 278.646 257.17 278.829C257.69 279.012 258.157 279.3 258.57 279.692C258.983 280.084 259.309 280.593 259.548 281.219C259.787 281.842 259.906 282.598 259.906 283.489V284.166H252.101V282.734H258.033C258.033 282.232 257.931 281.786 257.726 281.398C257.522 281.006 257.234 280.697 256.863 280.472C256.497 280.246 256.067 280.133 255.572 280.133C255.035 280.133 254.567 280.265 254.166 280.529C253.77 280.789 253.463 281.13 253.245 281.552C253.032 281.969 252.926 282.423 252.926 282.913V284.032C252.926 284.688 253.041 285.246 253.271 285.707C253.505 286.167 253.831 286.518 254.249 286.761C254.667 287 255.155 287.119 255.713 287.119C256.075 287.119 256.405 287.068 256.704 286.966C257.002 286.859 257.26 286.702 257.477 286.493C257.694 286.284 257.861 286.026 257.976 285.719L259.785 286.045C259.64 286.578 259.38 287.045 259.005 287.445C258.634 287.842 258.167 288.151 257.605 288.372C257.047 288.589 256.41 288.698 255.694 288.698ZM262.387 288.5V278.682H264.234V280.241H264.336C264.515 279.713 264.83 279.298 265.282 278.995C265.738 278.688 266.254 278.535 266.829 278.535C266.948 278.535 267.089 278.539 267.251 278.548C267.417 278.556 267.547 278.567 267.641 278.58V280.408C267.564 280.386 267.428 280.363 267.232 280.337C267.036 280.308 266.84 280.293 266.644 280.293C266.192 280.293 265.789 280.388 265.436 280.58C265.086 280.768 264.809 281.03 264.605 281.366C264.4 281.699 264.298 282.078 264.298 282.504V288.5H262.387ZM279.17 288.5H274.932V275.409H279.304C280.587 275.409 281.688 275.671 282.609 276.195C283.529 276.715 284.234 277.463 284.724 278.439C285.219 279.411 285.466 280.576 285.466 281.935C285.466 283.299 285.217 284.471 284.718 285.451C284.224 286.431 283.508 287.185 282.57 287.714C281.633 288.238 280.499 288.5 279.17 288.5ZM276.907 286.774H279.061C280.058 286.774 280.887 286.587 281.548 286.212C282.208 285.832 282.702 285.285 283.031 284.569C283.359 283.849 283.523 282.971 283.523 281.935C283.523 280.908 283.359 280.037 283.031 279.321C282.707 278.605 282.223 278.062 281.58 277.691C280.936 277.32 280.137 277.135 279.183 277.135H276.907V286.774ZM292.36 288.698C291.393 288.698 290.56 288.491 289.861 288.078C289.166 287.661 288.629 287.075 288.25 286.32C287.875 285.562 287.688 284.673 287.688 283.655C287.688 282.649 287.875 281.763 288.25 280.996C288.629 280.229 289.158 279.63 289.835 279.2C290.517 278.769 291.314 278.554 292.226 278.554C292.78 278.554 293.317 278.646 293.837 278.829C294.357 279.012 294.823 279.3 295.237 279.692C295.65 280.084 295.976 280.593 296.215 281.219C296.453 281.842 296.573 282.598 296.573 283.489V284.166H288.768V282.734H294.7C294.7 282.232 294.597 281.786 294.393 281.398C294.188 281.006 293.901 280.697 293.53 280.472C293.163 280.246 292.733 280.133 292.239 280.133C291.702 280.133 291.233 280.265 290.833 280.529C290.436 280.789 290.129 281.13 289.912 281.552C289.699 281.969 289.592 282.423 289.592 282.913V284.032C289.592 284.688 289.708 285.246 289.938 285.707C290.172 286.167 290.498 286.518 290.916 286.761C291.333 287 291.821 287.119 292.379 287.119C292.742 287.119 293.072 287.068 293.37 286.966C293.668 286.859 293.926 286.702 294.144 286.493C294.361 286.284 294.527 286.026 294.642 285.719L296.451 286.045C296.306 286.578 296.046 287.045 295.671 287.445C295.301 287.842 294.834 288.151 294.271 288.372C293.713 288.589 293.076 288.698 292.36 288.698ZM307.171 278.682L303.611 288.5H301.565L297.998 278.682H300.05L302.537 286.237H302.639L305.119 278.682H307.171ZM309.327 288.5V278.682H311.238V288.5H309.327ZM310.292 277.167C309.96 277.167 309.674 277.056 309.436 276.835C309.201 276.609 309.084 276.34 309.084 276.029C309.084 275.714 309.201 275.445 309.436 275.224C309.674 274.998 309.96 274.885 310.292 274.885C310.625 274.885 310.908 274.998 311.143 275.224C311.381 275.445 311.5 275.714 311.5 276.029C311.5 276.34 311.381 276.609 311.143 276.835C310.908 277.056 310.625 277.167 310.292 277.167ZM318.305 288.698C317.355 288.698 316.537 288.483 315.851 288.053C315.169 287.618 314.645 287.019 314.278 286.256C313.912 285.494 313.729 284.62 313.729 283.636C313.729 282.638 313.916 281.759 314.291 280.996C314.666 280.229 315.194 279.63 315.876 279.2C316.558 278.769 317.361 278.554 318.286 278.554C319.032 278.554 319.697 278.692 320.28 278.969C320.864 279.242 321.335 279.626 321.693 280.12C322.055 280.614 322.27 281.192 322.339 281.852H320.479C320.376 281.392 320.142 280.996 319.775 280.663C319.413 280.331 318.927 280.165 318.318 280.165C317.785 280.165 317.319 280.305 316.918 280.587C316.522 280.864 316.213 281.26 315.991 281.776C315.77 282.287 315.659 282.892 315.659 283.591C315.659 284.307 315.768 284.925 315.985 285.445C316.202 285.964 316.509 286.367 316.905 286.653C317.306 286.938 317.777 287.081 318.318 287.081C318.68 287.081 319.008 287.015 319.302 286.883C319.601 286.746 319.85 286.553 320.05 286.301C320.255 286.05 320.398 285.747 320.479 285.393H322.339C322.27 286.028 322.064 286.595 321.719 287.094C321.373 287.592 320.911 287.984 320.332 288.27C319.756 288.555 319.081 288.698 318.305 288.698ZM328.974 288.698C328.007 288.698 327.174 288.491 326.475 288.078C325.78 287.661 325.243 287.075 324.864 286.32C324.489 285.562 324.301 284.673 324.301 283.655C324.301 282.649 324.489 281.763 324.864 280.996C325.243 280.229 325.772 279.63 326.449 279.2C327.131 278.769 327.928 278.554 328.84 278.554C329.394 278.554 329.931 278.646 330.451 278.829C330.97 279.012 331.437 279.3 331.85 279.692C332.264 280.084 332.59 280.593 332.828 281.219C333.067 281.842 333.186 282.598 333.186 283.489V284.166H325.382V282.734H331.314C331.314 282.232 331.211 281.786 331.007 281.398C330.802 281.006 330.515 280.697 330.144 280.472C329.777 280.246 329.347 280.133 328.853 280.133C328.316 280.133 327.847 280.265 327.446 280.529C327.05 280.789 326.743 281.13 326.526 281.552C326.313 281.969 326.206 282.423 326.206 282.913V284.032C326.206 284.688 326.321 285.246 326.551 285.707C326.786 286.167 327.112 286.518 327.529 286.761C327.947 287 328.435 287.119 328.993 287.119C329.355 287.119 329.686 287.068 329.984 286.966C330.282 286.859 330.54 286.702 330.757 286.493C330.975 286.284 331.141 286.026 331.256 285.719L333.065 286.045C332.92 286.578 332.66 287.045 332.285 287.445C331.914 287.842 331.448 288.151 330.885 288.372C330.327 288.589 329.69 288.698 328.974 288.698Z" fill="black"/>
</g>
<defs>
<filter id="filter0_di_7304_4945" x="390.404" y="36.4" width="543.2" height="479.4" filterUnits="userSpaceOnUse" color-interpolation-filters="sRGB">
<feFlood flood-opacity="0" result="BackgroundImageFix"/>
<feColorMatrix in="SourceAlpha" type="matrix" values="0 0 0 0 0 0 0 0 0 0 0 0 0 0 0 0 0 0 127 0" result="hardAlpha"/>
<feOffset dy="4"/>
<feGaussianBlur stdDeviation="23.05"/>
<feComposite in2="hardAlpha" operator="out"/>
<feColorMatrix type="matrix" values="0 0 0 0 0.176213 0 0 0 0 0.176213 0 0 0 0 0.176213 0 0 0 0.15 0"/>
<feBlend mode="normal" in2="BackgroundImageFix" result="effect1_dropShadow_7304_4945"/>
<feBlend mode="normal" in="SourceGraphic" in2="effect1_dropShadow_7304_4945" result="shape"/>
<feColorMatrix in="SourceAlpha" type="matrix" values="0 0 0 0 0 0 0 0 0 0 0 0 0 0 0 0 0 0 127 0" result="hardAlpha"/>
<feOffset/>
<feGaussianBlur stdDeviation="50"/>
<feComposite in2="hardAlpha" operator="arithmetic" k2="-1" k3="1"/>
<feColorMatrix type="matrix" values="0 0 0 0 0 0 0 0 0 1 0 0 0 0 0.95 0 0 0 0.09 0"/>
<feBlend mode="normal" in2="shape" result="effect2_innerShadow_7304_4945"/>
</filter>
<filter id="filter1_dd_7304_4945" x="801.204" y="70.7" width="511.6" height="398.6" filterUnits="userSpaceOnUse" color-interpolation-filters="sRGB">
<feFlood flood-opacity="0" result="BackgroundImageFix"/>
<feColorMatrix in="SourceAlpha" type="matrix" values="0 0 0 0 0 0 0 0 0 0 0 0 0 0 0 0 0 0 127 0" result="hardAlpha"/>
<feOffset dy="4"/>
<feGaussianBlur stdDeviation="23.05"/>
<feComposite in2="hardAlpha" operator="out"/>
<feColorMatrix type="matrix" values="0 0 0 0 0.176213 0 0 0 0 0.176213 0 0 0 0 0.176213 0 0 0 0.12 0"/>
<feBlend mode="normal" in2="BackgroundImageFix" result="effect1_dropShadow_7304_4945"/>
<feColorMatrix in="SourceAlpha" type="matrix" values="0 0 0 0 0 0 0 0 0 0 0 0 0 0 0 0 0 0 127 0" result="hardAlpha"/>
<feOffset/>
<feGaussianBlur stdDeviation="79.65"/>
<feComposite in2="hardAlpha" operator="out"/>
<feColorMatrix type="matrix" values="0 0 0 0 0 0 0 0 0 1 0 0 0 0 0.95 0 0 0 0.15 0"/>
<feBlend mode="normal" in2="effect1_dropShadow_7304_4945" result="effect2_dropShadow_7304_4945"/>
<feBlend mode="normal" in="SourceGraphic" in2="effect2_dropShadow_7304_4945" result="shape"/>
</filter>
<filter id="filter2_ddd_7304_4945" x="0.496094" y="150" width="518.2" height="240" filterUnits="userSpaceOnUse" color-interpolation-filters="sRGB">
<feFlood flood-opacity="0" result="BackgroundImageFix"/>
<feColorMatrix in="SourceAlpha" type="matrix" values="0 0 0 0 0 0 0 0 0 0 0 0 0 0 0 0 0 0 127 0" result="hardAlpha"/>
<feOffset dy="4"/>
<feGaussianBlur stdDeviation="23.05"/>
<feComposite in2="hardAlpha" operator="out"/>
<feColorMatrix type="matrix" values="0 0 0 0 0.176213 0 0 0 0 0.176213 0 0 0 0 0.176213 0 0 0 0.09 0"/>
<feBlend mode="normal" in2="BackgroundImageFix" result="effect1_dropShadow_7304_4945"/>
<feColorMatrix in="SourceAlpha" type="matrix" values="0 0 0 0 0 0 0 0 0 0 0 0 0 0 0 0 0 0 127 0" result="hardAlpha"/>
<feOffset dx="56"/>
<feGaussianBlur stdDeviation="40"/>
<feComposite in2="hardAlpha" operator="out"/>
<feColorMatrix type="matrix" values="0 0 0 0 0 0 0 0 0 1 0 0 0 0 0.95 0 0 0 0.13 0"/>
<feBlend mode="normal" in2="effect1_dropShadow_7304_4945" result="effect2_dropShadow_7304_4945"/>
<feColorMatrix in="SourceAlpha" type="matrix" values="0 0 0 0 0 0 0 0 0 0 0 0 0 0 0 0 0 0 127 0" result="hardAlpha"/>
<feOffset dx="-56"/>
<feGaussianBlur stdDeviation="40"/>
<feComposite in2="hardAlpha" operator="out"/>
<feColorMatrix type="matrix" values="0 0 0 0 0.98 0 0 0 0 0 0 0 0 0 1 0 0 0 0.05 0"/>
<feBlend mode="normal" in2="effect2_dropShadow_7304_4945" result="effect3_dropShadow_7304_4945"/>
<feBlend mode="normal" in="SourceGraphic" in2="effect3_dropShadow_7304_4945" result="shape"/>
</filter>
<radialGradient id="paint0_radial_7304_4945" cx="0" cy="0" r="1" gradientUnits="userSpaceOnUse" gradientTransform="translate(662.004 272.1) rotate(90) scale(278.106 315.714)">
<stop stop-color="#00FFC2"/>
<stop offset="1" stop-color="#97FCE4" stop-opacity="0.15"/>
</radialGradient>
<linearGradient id="paint1_linear_7304_4945" x1="380.989" y1="2.46297" x2="726.805" y2="-53.9683" gradientUnits="userSpaceOnUse">
<stop stop-color="white"/>
<stop offset="1" stop-color="#00FFC2" stop-opacity="0.62"/>
</linearGradient>
<linearGradient id="paint2_linear_7304_4945" x1="602.487" y1="151.282" x2="686.6" y2="288.808" gradientUnits="userSpaceOnUse">
<stop stop-color="white"/>
<stop offset="1" stop-color="white" stop-opacity="0.74"/>
</linearGradient>
<linearGradient id="paint3_linear_7304_4945" x1="502.724" y1="99.1191" x2="823.254" y2="196.258" gradientUnits="userSpaceOnUse">
<stop stop-opacity="0.25"/>
<stop offset="1" stop-opacity="0"/>
</linearGradient>
<linearGradient id="paint4_linear_7304_4945" x1="558.504" y1="208.2" x2="765.504" y2="208.2" gradientUnits="userSpaceOnUse">
<stop stop-color="#97FCE4" stop-opacity="0.68"/>
<stop offset="1" stop-color="#97FCE4" stop-opacity="0.27"/>
</linearGradient>
<linearGradient id="paint5_linear_7304_4945" x1="602.487" y1="322.282" x2="686.6" y2="459.808" gradientUnits="userSpaceOnUse">
<stop stop-color="white"/>
<stop offset="1" stop-color="white" stop-opacity="0.74"/>
</linearGradient>
<linearGradient id="paint6_linear_7304_4945" x1="502.724" y1="270.119" x2="823.254" y2="367.258" gradientUnits="userSpaceOnUse">
<stop stop-opacity="0.25"/>
<stop offset="1" stop-opacity="0"/>
</linearGradient>
<linearGradient id="paint7_linear_7304_4945" x1="558.504" y1="379.2" x2="765.504" y2="379.2" gradientUnits="userSpaceOnUse">
<stop stop-color="#97FCE4" stop-opacity="0.68"/>
<stop offset="1" stop-color="#97FCE4" stop-opacity="0.27"/>
</linearGradient>
<linearGradient id="paint8_linear_7304_4945" x1="1001.51" y1="187.209" x2="1138.79" y2="331.089" gradientUnits="userSpaceOnUse">
<stop stop-color="white" stop-opacity="0.72"/>
<stop offset="1" stop-color="white"/>
</linearGradient>
<linearGradient id="paint9_linear_7304_4945" x1="940.793" y1="203.356" x2="1159.92" y2="320.223" gradientUnits="userSpaceOnUse">
<stop stop-color="white"/>
<stop offset="1" stop-color="#97FCE4" stop-opacity="0.34"/>
</linearGradient>
<linearGradient id="paint10_linear_7304_4945" x1="188.808" y1="187.209" x2="320.644" y2="363.467" gradientUnits="userSpaceOnUse">
<stop stop-color="white" stop-opacity="0.72"/>
<stop offset="1" stop-color="white"/>
</linearGradient>
<linearGradient id="paint11_linear_7304_4945" x1="70.153" y1="111.337" x2="462.313" y2="208.517" gradientUnits="userSpaceOnUse">
<stop stop-color="#FA00FF" stop-opacity="0.38"/>
<stop offset="1" stop-color="#00FFF2" stop-opacity="0.53"/>
</linearGradient>
<clipPath id="clip0_7304_4945">
<rect width="207" height="34.2" fill="white" transform="translate(558.504 112.5)"/>
</clipPath>
</defs>
</svg>
