<svg width="146" height="19" viewBox="0 0 146 19" fill="none" xmlns="http://www.w3.org/2000/svg">
<path d="M3.10142 18.4862C2.61384 18.4862 2.1632 18.368 1.74949 18.1316C1.35056 17.8952 1.0329 17.5775 0.796497 17.1786C0.560095 16.7649 0.441895 16.3142 0.441895 15.8267L0.441938 12.3687L2.23707 13.414V15.8267C2.23707 16.0631 2.31834 16.2699 2.48086 16.4472C2.65816 16.6097 2.86502 16.691 3.10142 16.691H13.7395C13.9759 16.691 14.1754 16.6097 14.3379 16.4472C14.5152 16.2699 14.6039 16.0631 14.6039 15.8267V12.2585C14.6039 12.0221 14.5152 11.8226 14.3379 11.6601C14.1754 11.4976 13.9759 11.4163 13.7395 11.4163H3.10142C2.61384 11.4163 2.1632 11.2981 1.74949 11.0617C1.35056 10.8105 1.0329 10.4855 0.796497 10.0865C0.560095 9.6876 0.441895 9.24435 0.441895 8.75677V5.18858C0.441895 4.701 0.560095 4.25774 0.796497 3.85881C1.0329 3.44511 1.35056 3.12006 1.74949 2.88365C2.1632 2.64725 2.61384 2.52905 3.10142 2.52905H13.7395C14.2271 2.52905 14.6703 2.64725 15.0693 2.88365C15.483 3.12006 15.808 3.44511 16.0444 3.85881C16.2808 4.25774 16.399 4.701 16.399 5.18858V8.64713L14.6064 7.61236L14.6039 5.18858C14.6039 4.95217 14.5152 4.75271 14.3379 4.59018C14.1754 4.41288 13.9759 4.32423 13.7395 4.32423H3.10142C2.86502 4.32423 2.65816 4.41288 2.48086 4.59018C2.31834 4.75271 2.23707 4.95217 2.23707 5.18858V8.75677C2.23707 8.99317 2.31834 9.19263 2.48086 9.35516C2.65816 9.51769 2.86502 9.59895 3.10142 9.59895H13.7395C14.2271 9.59895 14.6703 9.72454 15.0693 9.97572C15.483 10.2121 15.808 10.5298 16.0444 10.9287C16.2808 11.3276 16.399 11.7709 16.399 12.2585V15.8267C16.399 16.3142 16.2808 16.7649 16.0444 17.1786C15.808 17.5775 15.483 17.8952 15.0693 18.1316C14.6703 18.368 14.2271 18.4862 13.7395 18.4862H3.10142Z" fill="white"/>
<path d="M20.6083 18.4863V4.93817L22.5237 6.05894V18.4863H20.6083ZM20.6083 2.41542V0.5H22.5237V2.41542H20.6083Z" fill="white"/>
<path d="M29.5594 18.4863C29.0456 18.4863 28.5706 18.3617 28.1346 18.1125C27.7141 17.8478 27.3715 17.5052 27.1068 17.0847C26.8576 16.6487 26.733 16.1738 26.733 15.6599V0.5L28.6485 1.60518V15.6599C28.6485 15.909 28.7341 16.127 28.9054 16.3139C29.0923 16.4852 29.3103 16.5709 29.5594 16.5709H31.8486V18.4863H29.5594Z" fill="white"/>
<path d="M36.0579 18.4863V0.5L37.9733 1.60524V4.93817H47.0366C47.5504 4.93817 48.0176 5.07054 48.4381 5.33527C48.8741 5.58443 49.2167 5.92703 49.4659 6.36306C49.7306 6.78352 49.863 7.25069 49.863 7.76459V18.4863H47.9475V7.76459C47.9475 7.51542 47.8541 7.3052 47.6672 7.1339C47.4959 6.94703 47.2857 6.85359 47.0366 6.85359H38.9077C38.6585 6.85359 38.4405 6.94703 38.2536 7.1339C38.0668 7.3052 37.9733 7.51542 37.9733 7.76459V18.4863H36.0579Z" fill="white"/>
<path d="M56.8986 18.4863C56.3847 18.4863 55.9098 18.3618 55.4737 18.1126C55.0533 17.8479 54.7107 17.5053 54.4459 17.0848C54.1968 16.6488 54.0722 16.1738 54.0722 15.6599V7.76465C54.0722 7.25075 54.1968 6.78358 54.4459 6.36312C54.7107 5.92709 55.0533 5.58449 55.4737 5.33533C55.9098 5.0706 56.3847 4.93823 56.8986 4.93823H65.0275C65.5569 4.93823 66.0319 5.0706 66.4524 5.33533C66.8884 5.58449 67.231 5.92709 67.4801 6.36312C67.7449 6.78358 67.8772 7.25075 67.8772 7.76465V15.6599C67.8772 16.1738 67.7449 16.6488 67.4801 17.0848C67.231 17.5053 66.8884 17.8479 66.4524 18.1126C66.0319 18.3618 65.5569 18.4863 65.0275 18.4863H56.8986ZM56.8986 16.5709H65.0275C65.2766 16.5709 65.4869 16.4853 65.6582 16.314C65.845 16.1271 65.9385 15.9091 65.9385 15.6599V7.76465C65.9385 7.51549 65.845 7.30526 65.6582 7.13396C65.4869 6.94709 65.2766 6.85365 65.0275 6.85365H56.8986C56.6495 6.85365 56.4314 6.94709 56.2446 7.13396C56.0733 7.30526 55.9876 7.51549 55.9876 7.76465V15.6599C55.9876 15.9091 56.0733 16.1271 56.2446 16.314C56.4314 16.4853 56.6495 16.5709 56.8986 16.5709Z" fill="white"/>
<path d="M74.913 18.4863C74.3991 18.4863 73.9241 18.3618 73.4881 18.1126C73.0676 17.8479 72.725 17.5053 72.4603 17.0848C72.2111 16.6488 72.0865 16.1738 72.0865 15.6599V4.93823L74.002 6.04472V15.6599C74.002 15.9091 74.0876 16.1271 74.2589 16.314C74.4458 16.4853 74.6638 16.5709 74.913 16.5709H83.0418C83.291 16.5709 83.509 16.4853 83.6959 16.314C83.8827 16.1271 83.9762 15.9091 83.9762 15.6599V4.93823L85.8916 6.0454V15.6599C85.8916 16.1738 85.7592 16.6488 85.4945 17.0848C85.2453 17.5053 84.9027 17.8479 84.4667 18.1126C84.0463 18.3618 83.5713 18.4863 83.0418 18.4863H74.913Z" fill="white"/>
<path d="M92.917 18.4863C92.4049 18.4863 91.9317 18.3618 91.4973 18.1126C91.0784 17.8479 90.737 17.5053 90.4733 17.0848C90.225 16.6488 90.1009 16.1738 90.1009 15.6599V7.76465C90.1009 7.25075 90.225 6.78358 90.4733 6.36312C90.737 5.92709 91.0784 5.58449 91.4973 5.33533C91.9317 5.0706 92.4049 4.93823 92.917 4.93823H101.016C101.544 4.93823 102.017 5.0706 102.436 5.33533C102.87 5.58449 103.212 5.92709 103.46 6.36312C103.724 6.78358 103.855 7.25075 103.855 7.76465V12.67H92.0093V15.6599C92.0093 15.9091 92.0946 16.1271 92.2653 16.314C92.4515 16.4853 92.6687 16.5709 92.917 16.5709H103.855V18.4863H92.917ZM92.0093 10.7546H101.924V7.76465C101.924 7.51549 101.831 7.30526 101.644 7.13396C101.474 6.94709 101.264 6.85365 101.016 6.85365H92.917C92.6687 6.85365 92.4515 6.94709 92.2653 7.13396C92.0946 7.30526 92.0093 7.51549 92.0093 7.76465V10.7546Z" fill="white"/>
<path d="M110.891 18.4863C110.362 18.4863 109.879 18.3617 109.443 18.1125C109.022 17.8478 108.688 17.5052 108.438 17.0847C108.189 16.6487 108.065 16.1738 108.065 15.6599V0.5L109.98 1.60633V4.93817H115.843V6.85359H109.98V15.6599C109.98 15.909 110.066 16.127 110.237 16.3139C110.424 16.4852 110.642 16.5709 110.891 16.5709H115.843V18.4863H110.891Z" fill="white"/>
<path d="M122.879 18.4863C122.349 18.4863 121.867 18.3617 121.431 18.1125C121.01 17.8478 120.675 17.5052 120.426 17.0847C120.177 16.6487 120.052 16.1738 120.052 15.6599V0.5L121.968 1.60633V4.93817H127.831V6.85359H121.968V15.6599C121.968 15.909 122.054 16.127 122.225 16.3139C122.412 16.4852 122.63 16.5709 122.879 16.5709H127.831V18.4863H122.879Z" fill="white"/>
<path d="M134.856 18.4863C134.344 18.4863 133.871 18.3618 133.437 18.1126C133.018 17.8479 132.676 17.5053 132.413 17.0848C132.164 16.6488 132.04 16.1738 132.04 15.6599V7.76465C132.04 7.25075 132.164 6.78358 132.413 6.36312C132.676 5.92709 133.018 5.58449 133.437 5.33533C133.871 5.0706 134.344 4.93823 134.856 4.93823H142.955C143.483 4.93823 143.956 5.0706 144.375 5.33533C144.81 5.58449 145.151 5.92709 145.399 6.36312C145.663 6.78358 145.795 7.25075 145.795 7.76465V12.67H133.949V15.6599C133.949 15.9091 134.034 16.1271 134.205 16.314C134.391 16.4853 134.608 16.5709 134.856 16.5709H145.795V18.4863H134.856ZM133.949 10.7546H143.863V7.76465C143.863 7.51549 143.77 7.30526 143.584 7.13396C143.413 6.94709 143.204 6.85365 142.955 6.85365H134.856C134.608 6.85365 134.391 6.94709 134.205 7.13396C134.034 7.30526 133.949 7.51549 133.949 7.76465V10.7546Z" fill="white"/>
</svg>
